<?xml version="1.0" encoding="iso-8859-1"?>
<!-- Generator: Adobe Illustrator 19.1.0, SVG Export Plug-In . SVG Version: 6.00 Build 0)  -->
<svg version="1.1" id="Capa_1" xmlns="http://www.w3.org/2000/svg" xmlns:xlink="http://www.w3.org/1999/xlink" x="0px" y="0px"
	 viewBox="0 0 540.078 540.078" style="enable-background:new 0 0 540.078 540.078;" xml:space="preserve">
<g>
	<path d="M432.062,126.018h72.01c4.969,0,9.001-4.032,9.002-9.001v-72.01h-18.003V92.26C442.15,34.096,369.73,0,297.043,0
		C148.143,0,27.004,121.139,27.004,270.039s121.139,270.039,270.039,270.039c84.54,0,162.617-38.49,214.195-105.603l-14.276-10.964
		c-48.139,62.631-121.014,98.564-199.919,98.564c-138.98,0-252.036-113.056-252.036-252.036S158.062,18.003,297.043,18.003
		c69.14,0,138.186,33.346,187.976,90.012h-52.956V126.018z"/>
</g>
<g>
</g>
<g>
</g>
<g>
</g>
<g>
</g>
<g>
</g>
<g>
</g>
<g>
</g>
<g>
</g>
<g>
</g>
<g>
</g>
<g>
</g>
<g>
</g>
<g>
</g>
<g>
</g>
<g>
</g>
</svg>
