<?xml version="1.0" encoding="iso-8859-1"?>
<!-- Generator: Adobe Illustrator 18.0.0, SVG Export Plug-In . SVG Version: 6.00 Build 0)  -->
<!DOCTYPE svg PUBLIC "-//W3C//DTD SVG 1.1//EN" "http://www.w3.org/Graphics/SVG/1.1/DTD/svg11.dtd">
<svg version="1.1" id="Capa_1" xmlns="http://www.w3.org/2000/svg" xmlns:xlink="http://www.w3.org/1999/xlink" x="0px" y="0px"
	 viewBox="0 4 57 43" style="enable-background:new 0 3.6 57 47;" xml:space="preserve">
<g>
	<g>
		<g>
			<rect x="1" y="4.5" style="fill:#ECF0F1;" width="55" height="42"/>
			<path style="fill:#545E73;" d="M57,47.5H0v-44h57V47.5z M2,45.5h53v-40H2V45.5z"/>
		</g>
		<g>
			<rect x="5" y="8.5" style="fill:#545E73;" width="47" height="34"/>
			<path style="fill:#ECF0F1;" d="M53,43.5H4v-36h49V43.5z M6,41.5h45v-32H6V41.5z"/>
		</g>
		<circle style="fill:#F3D55A;" cx="15" cy="17.069" r="4.569"/>
		<polygon style="fill:#11A085;" points="51,32.611 50,31.5 38,20.5 27.5,32 32.983,37.483 37,41.5 51,41.5"/>
		<polygon style="fill:#26B999;" points="6,41.5 37,41.5 32.983,37.483 22.017,26.517 6,40.5"/>
	</g>
	<g>
		<circle style="fill:#ED7161;" cy="25" cx="29" r="12"/>
		<path style="fill:#FFFFFF;" d="m30.3,25l3.535992,-3.535995c0.39101,-0.390999 0.39101,-1.022995 0,-1.414001s-1.022991,-0.390999 -1.413998,0l-3.535995,3.536003l-3.535995,-3.536003c-0.391006,-0.390999 -1.023014,-0.390999 -1.414003,0s-0.391006,1.023003 0,1.414001l3.535994,3.535995l-3.535994,3.536003c-0.391006,0.390999 -0.391006,1.023003 0,1.414001c0.194994,0.195 0.450991,0.292999 0.706999,0.292999s0.511997,-0.098 0.707005,-0.292999l3.535995,-3.535995l3.535995,3.535995c0.195004,0.195 0.451,0.292999 0.707001,0.292999s0.512005,-0.098 0.706997,-0.292999c0.39101,-0.390999 0.39101,-1.023003 0,-1.414001l-3.535992,-3.536003z"/>
	</g>
</g>
<g>
</g>
<g>
</g>
<g>
</g>
<g>
</g>
<g>
</g>
<g>
</g>
<g>
</g>
<g>
</g>
<g>
</g>
<g>
</g>
<g>
</g>
<g>
</g>
<g>
</g>
<g>
</g>
<g>
</g>
</svg>
